HIERARCHY
ROOT Hips
{
	OFFSET -8.782735 38.637295 -16.742413
	CHANNELS 6 Xposition Yposition Zposition Xrotation Yrotation Zrotation
	JOINT Chest
	{
		OFFSET -5.049225 12.484409 -2.190689
		CHANNELS 3 Xrotation Yrotation Zrotation
		JOINT Chest2
		{
			OFFSET -0.137571 19.388336 9.118127
			CHANNELS 3 Xrotation Yrotation Zrotation
			JOINT Chest3
			{
				OFFSET 1.438714 14.423492 3.565526
				CHANNELS 3 Xrotation Yrotation Zrotation
				JOINT Neck
				{
					OFFSET 0.922269 16.680969 4.417100
					CHANNELS 3 Xrotation Yrotation Zrotation
					JOINT Head
					{
						OFFSET 1.854072 9.750237 3.364967
						CHANNELS 3 Xrotation Yrotation Zrotation
						End Site
						{
							OFFSET 1.816765 9.776726 3.307971
						}
					}
				}
				JOINT LeftCollar
				{
					OFFSET 5.801661 12.523956 3.360889
					CHANNELS 3 Xrotation Yrotation Zrotation
					JOINT LeftUpArm
					{
						OFFSET 12.949442 -0.105530 -11.865927
						CHANNELS 3 Xrotation Yrotation Zrotation
						JOINT LeftLowArm
						{
							OFFSET 28.802441 -17.377586 2.857735
							CHANNELS 3 Xrotation Yrotation Zrotation
							JOINT LeftHand
							{
								OFFSET 26.874649 -13.352119 0.648775
								CHANNELS 3 Xrotation Yrotation Zrotation
								End Site
								{
									OFFSET 5.873604 -2.918198 0.141790
								}
							}
						}
					}
				}
				JOINT RightCollar
				{
					OFFSET -1.171213 11.681572 7.998614
					CHANNELS 3 Xrotation Yrotation Zrotation
					JOINT RightUpArm
					{
						OFFSET -14.461750 -2.158676 9.731095
						CHANNELS 3 Xrotation Yrotation Zrotation
						JOINT RightLowArm
						{
							OFFSET 10.966553 -23.708298 21.386591
							CHANNELS 3 Xrotation Yrotation Zrotation
							JOINT RightHand
							{
								OFFSET 11.156601 -19.302361 20.097366
								CHANNELS 3 Xrotation Yrotation Zrotation
								End Site
								{
									OFFSET 2.438385 -4.218712 4.392490
								}
							}
						}
					}
				}
			}
		}
	}
	JOINT LeftUpLeg
	{
		OFFSET 9.074084 3.173031 -2.830551
		CHANNELS 3 Xrotation Yrotation Zrotation
		JOINT LeftLowLeg
		{
			OFFSET 42.187401 -1.833221 21.467432
			CHANNELS 3 Xrotation Yrotation Zrotation
			JOINT LeftFoot
			{
				OFFSET 44.228725 -3.121750 5.885673
				CHANNELS 3 Xrotation Yrotation Zrotation
				JOINT LeftToe
				{
					OFFSET 20.796089 -3.483150 10.721458
					CHANNELS 3 Xrotation Yrotation Zrotation
					End Site
					{
						OFFSET 12.395805 7.462208 18.714128
					}
				}
			}
		}
	}
	JOINT RightUpLeg
	{
		OFFSET -9.074016 -3.173214 2.830584
		CHANNELS 3 Xrotation Yrotation Zrotation
		JOINT RightLowLeg
		{
			OFFSET -6.922287 -3.902506 46.699722
			CHANNELS 3 Xrotation Yrotation Zrotation
			JOINT RightFoot
			{
				OFFSET 32.469234 -7.669838 -29.790966
				CHANNELS 3 Xrotation Yrotation Zrotation
				JOINT RightToe
				{
					OFFSET 15.255795 4.060343 17.616224
					CHANNELS 3 Xrotation Yrotation Zrotation
					End Site
					{
						OFFSET 0.363201 3.990387 23.313108
					}
				}
			}
		}
	}
}
MOTION
Frames: 16
Frame Time: 0.033333
-23.626680 39.065975 -22.137098 -2.418670 -2.187410 21.174570 -8.877525 -1.912298 2.997300 4.040580 4.736868 -6.481679 -3.099065 -3.311305 -3.089008 4.676043 11.231544 -11.087847 -0.000003 -0.000001 0.000001 -6.545912 2.366852 -3.773509 -4.763087 3.668279 6.368544 -18.112265 -26.269630 21.486771 0.000004 -0.000001 0.000003 -9.403092 -3.230769 -1.921572 19.471305 -4.854085 8.536699 0.934103 56.459396 51.251994 -0.000005 0.000003 -0.000004 6.840839 -4.526361 -20.554833 3.436122 11.222514 -3.522291 0.628485 -5.895064 3.484041 -0.000002 0.000002 0.000003 7.611182 11.050435 7.933768 191.313162 -171.005493 138.918739 -27.919483 27.201848 12.366158 0.000000 0.000001 -0.000001 
-24.034002 39.026402 -22.265854 -2.575405 -2.201868 21.757011 -9.377533 -2.040402 3.254961 5.026585 4.258647 -6.534299 -3.915712 -3.419709 -3.495940 5.161836 11.116077 -11.618754 -0.000000 0.000003 -0.000001 -7.146246 3.233035 -3.479550 -5.226623 3.793402 5.298013 -18.285566 -26.445294 22.078723 -0.000005 0.000000 0.000003 -9.702972 -3.653328 -1.637553 21.336881 -6.090492 8.705177 4.409453 58.800955 49.537880 -0.000000 0.000006 -0.000000 7.306098 -4.382001 -21.060704 3.385629 11.187457 -3.748852 0.807251 -6.016256 3.499415 0.000002 -0.000001 0.000004 7.988407 11.292658 8.014434 191.521250 -170.617647 137.997716 -28.422027 27.450020 12.607548 0.000000 -0.000002 0.000000 
-24.405670 38.998863 -22.380014 -3.121154 -2.149462 22.435431 -9.634854 -2.193078 3.643698 5.095115 4.311597 -6.622914 -3.716449 -3.419310 -3.858409 5.355615 11.326872 -11.851879 -0.000000 0.000006 0.000002 -7.339805 3.510705 -3.701643 -5.248112 4.509626 4.538375 -18.251080 -26.734568 23.126589 -0.000005 -0.000002 0.000003 -9.895157 -4.367237 -1.595669 23.479568 -7.280351 8.707064 8.579143 61.218986 47.151084 -0.000004 0.000003 -0.000000 7.480462 -4.727178 -21.976467 3.676739 12.070823 -3.777935 1.199478 -6.525815 3.533259 -0.000003 0.000006 0.000004 8.587839 10.965876 7.632012 191.375057 -170.473735 137.966679 -28.516337 28.687754 12.236871 0.000001 -0.000004 -0.000001 
-24.746874 38.967667 -22.490129 -3.481415 -2.131784 22.525682 -9.157408 -2.215361 4.046756 4.332201 4.474284 -6.393931 -3.224811 -3.581247 -4.154951 5.466497 11.113938 -11.755275 -0.000001 0.000001 -0.000001 -7.270564 3.741205 -3.933812 -4.865246 5.088332 4.212327 -18.128196 -27.466151 23.704059 0.000000 -0.000001 0.000003 -9.775310 -4.890021 -1.609056 24.501217 -7.806332 8.334528 9.264638 62.988469 47.400809 -0.000004 0.000003 -0.000000 7.327484 -4.974060 -22.164613 4.014935 12.919730 -3.991192 1.308240 -6.868440 3.684813 -0.000001 0.000003 0.000001 9.002964 11.007160 7.566620 191.307479 -170.426074 138.130959 -28.250426 28.802662 11.885329 0.000001 -0.000000 0.000000 
-25.078491 38.937649 -22.603394 -3.569833 -2.379224 22.797693 -8.757024 -2.174517 4.277779 4.330337 4.256290 -6.208737 -3.716810 -3.653639 -4.481158 5.765244 11.302816 -12.014269 0.000001 -0.000001 0.000001 -7.469930 4.489875 -4.058966 -4.979427 4.984166 3.717230 -18.293868 -28.195665 23.800361 0.000000 -0.000004 0.000002 -9.463484 -5.204452 -1.352375 26.102230 -8.418889 8.432905 11.966549 63.824812 45.393762 -0.000009 0.000001 -0.000000 7.541033 -4.861630 -22.371846 4.193973 12.478449 -4.041416 1.015357 -6.598532 3.622775 0.000001 0.000003 0.000004 9.418322 11.387896 7.692428 191.050227 -170.170857 137.897421 -27.961123 28.492047 11.814133 0.000001 -0.000005 0.000000 
-25.384663 38.914642 -22.708487 -2.996799 -2.811049 23.403104 -9.807561 -2.282379 4.076610 5.054399 4.070764 -6.244541 -3.925427 -3.498085 -4.517769 5.377540 12.456883 -12.153747 -0.000001 -0.000001 0.000001 -7.672848 4.609644 -4.244034 -4.652050 5.986727 3.631038 -18.938305 -29.351136 23.688841 0.000000 0.000001 -0.000000 -9.578664 -5.726555 -1.318116 27.528779 -8.479027 8.701154 17.224834 65.144903 41.446360 -0.000004 0.000001 -0.000000 7.816328 -4.905114 -22.498259 4.576891 12.547618 -4.548684 0.658258 -6.827753 4.172052 -0.000000 0.000000 0.000003 9.019403 11.889196 8.024917 191.288300 -169.889713 136.462863 -28.300797 28.381097 12.340657 0.000003 -0.000004 0.000001 
-25.665783 38.889019 -22.813019 -2.836240 -3.357610 23.819627 -9.831834 -2.235296 3.898347 5.470137 3.752629 -6.122632 -4.378469 -2.925862 -4.493581 5.677143 12.583988 -12.397978 -0.000001 0.000003 -0.000001 -7.760008 4.892148 -4.396468 -4.404627 6.673080 3.666131 -19.477719 -30.593524 23.194392 -0.000001 -0.000001 0.000001 -9.893737 -6.711378 -1.494765 29.517711 -8.665255 9.000598 22.629301 65.724991 36.840012 -0.000007 0.000000 0.000001 8.149432 -4.684719 -22.696066 4.932425 12.759807 -4.969881 0.467146 -7.112320 4.561606 0.000002 -0.000001 0.000002 9.112575 12.440079 8.396606 191.467606 -169.536169 135.229153 -28.902007 28.352583 12.857928 0.000001 -0.000006 -0.000001 
-25.932861 38.855133 -22.922707 -3.985632 -3.951317 23.996510 -9.452340 -2.211766 4.128618 5.525806 3.784904 -6.204990 -4.194710 -2.415043 -4.231798 6.182034 12.193239 -12.674816 -0.000000 0.000004 0.000001 -7.986721 4.171823 -4.938056 -4.517583 7.297775 3.422105 -20.374869 -31.631689 22.374993 0.000003 -0.000001 -0.000001 -9.402949 -6.900339 -0.769104 30.154134 -10.205316 8.748366 28.039629 66.794571 32.762396 -0.000004 0.000000 -0.000002 8.683271 -4.463510 -23.174472 4.789516 13.085433 -4.977232 0.797936 -6.747637 4.132013 -0.000000 0.000000 0.000007 10.519771 12.528467 8.126422 191.365276 -169.408895 135.511595 -28.935219 28.190183 12.859610 0.000001 -0.000002 -0.000001 
-26.176006 38.819248 -23.027685 -4.377553 -4.009554 24.231932 -8.948082 -2.171784 4.465262 5.110562 3.410082 -5.695016 -4.022169 -2.414729 -4.847322 6.423287 12.506314 -13.214246 -0.000003 0.000003 -0.000000 -8.380208 4.749647 -5.051969 -4.546142 8.115034 3.173797 -20.906015 -32.665434 22.383394 0.000004 0.000001 -0.000000 -9.746852 -7.657947 -0.836356 32.285853 -11.381945 8.924189 32.167360 66.323958 28.866896 -0.000005 0.000002 -0.000003 9.044326 -4.241066 -23.545503 4.603561 12.663992 -4.786591 0.836980 -6.976378 4.207849 -0.000003 0.000002 -0.000000 10.950292 12.513671 8.024369 191.222839 -169.296129 135.639115 -28.893910 29.293626 12.436573 0.000001 0.000001 -0.000001 
-26.392017 38.805126 -23.122360 -4.531337 -4.293514 24.698287 -8.745507 -2.136890 4.391896 4.421245 3.712577 -5.664614 -3.383998 -2.379702 -4.835062 6.729723 12.716969 -13.530565 -0.000000 0.000004 0.000001 -8.118680 4.887788 -5.474722 -4.139770 7.699049 2.840467 -19.808256 -32.747875 23.880759 -0.000002 0.000000 -0.000001 -9.514234 -7.646105 -1.045949 31.891328 -10.932789 8.453697 31.280757 66.791409 29.331643 -0.000004 -0.000001 -0.000005 9.467613 -4.056714 -23.970110 4.775756 12.735022 -5.036358 0.800767 -6.916549 4.224496 -0.000001 0.000002 0.000004 11.250237 12.572719 7.960679 191.334267 -169.137204 135.099462 -28.899811 28.907686 12.437448 0.000001 -0.000001 -0.000001 
-26.593491 38.778221 -23.216631 -5.348595 -4.198912 24.825340 -8.637577 -2.225376 4.726776 4.019706 3.847310 -5.659233 -3.115152 -1.928227 -4.688827 7.920903 11.876863 -14.009713 0.000001 0.000001 0.000001 -8.186777 4.693145 -5.716420 -4.525193 7.617398 1.803882 -20.465023 -33.965349 23.352835 -0.000003 -0.000004 0.000002 -9.691933 -8.776106 -1.001746 33.315662 -12.225076 8.464328 39.875273 67.451403 22.159927 -0.000009 0.000001 -0.000004 9.863980 -3.943899 -24.423553 4.527898 12.520433 -4.713565 1.037990 -6.817735 3.887404 0.000001 0.000000 0.000003 11.970956 12.146423 7.477415 191.254968 -169.406122 135.763356 -28.564546 28.974632 12.236271 0.000002 0.000002 -0.000001 
-26.790775 38.747643 -23.318470 -5.595143 -3.529729 24.912669 -8.511559 -2.301146 5.192751 4.125923 3.456396 -5.346075 -3.192627 -2.598122 -5.504517 6.757354 13.541282 -14.089315 -0.000001 -0.000001 -0.000001 -8.523955 6.182005 -5.622216 -4.548473 7.662738 1.311965 -20.950844 -35.562947 23.097982 0.000003 0.000000 0.000003 -10.230096 -9.797716 -1.395125 35.083441 -12.702551 8.662612 45.193214 66.939406 17.344842 -0.000006 0.000003 -0.000001 9.569629 -4.407512 -24.727785 4.594408 12.915128 -4.624082 1.237673 -7.755214 4.396387 -0.000000 0.000003 0.000001 12.134962 11.581667 7.077247 191.309910 -169.672677 136.078378 -28.414306 28.917751 12.115709 0.000000 -0.000003 -0.000002 
-26.967201 38.726440 -23.412979 -4.999760 -2.888585 25.118391 -9.458013 -2.511170 5.334996 4.508456 3.029920 -5.095473 -3.284720 -2.874759 -6.159533 6.334826 14.270510 -14.145229 -0.000004 -0.000001 0.000001 -8.890491 7.003926 -5.714152 -4.605090 7.945084 1.303166 -21.803617 -36.777099 22.418660 0.000000 0.000002 0.000003 -10.261208 -9.828893 -1.323349 36.163048 -13.369843 8.816099 48.742627 66.518379 14.346290 -0.000004 0.000001 -0.000001 9.023755 -4.935950 -24.704613 4.750157 13.040468 -4.829576 1.433355 -8.170515 4.535566 -0.000001 0.000001 0.000003 11.313914 11.268971 7.069451 191.207116 -169.705353 136.188535 -28.043124 29.080876 11.848280 -0.000001 -0.000003 -0.000001 
-27.127323 38.712215 -23.500666 -5.516453 -3.266268 25.234250 -9.744307 -2.580724 5.367178 5.991506 2.781930 -5.573936 -4.288380 -2.276636 -5.573039 7.052638 13.375083 -14.307008 -0.000002 0.000005 -0.000000 -9.124177 6.568438 -6.202212 -4.481778 9.192903 1.294505 -23.094623 -38.223286 21.261365 0.000004 -0.000001 0.000004 -9.089244 -9.254318 -0.214837 35.357068 -14.779621 8.438833 55.432528 67.582912 9.279063 -0.000004 0.000003 -0.000000 9.340336 -4.759122 -25.041150 4.500241 12.990876 -4.653828 1.712034 -8.260243 4.330845 -0.000003 -0.000003 0.000003 12.086207 11.286684 6.928939 191.255501 -169.659426 136.149166 -27.934273 28.653159 11.891500 0.000001 -0.000002 0.000000 
-27.287910 38.703285 -23.575583 -5.248863 -3.596160 25.494683 -9.229882 -2.455704 5.223881 6.098562 2.447608 -5.290638 -4.869557 -2.286167 -6.046297 6.657691 13.934405 -14.176976 -0.000002 0.000003 0.000001 -9.429027 6.967225 -6.438958 -4.304068 10.330444 1.589474 -23.915192 -39.259617 20.940279 0.000000 -0.000002 0.000003 -10.037842 -11.880352 -0.577313 37.680152 -21.786862 7.075425 73.673603 62.480446 -6.372308 -0.000007 -0.000001 -0.000000 9.962664 -4.326349 -25.107258 4.514396 13.026819 -5.027097 1.769955 -8.538363 4.572507 0.000002 0.000005 -0.000001 11.887143 11.683204 7.191073 191.257468 -169.165986 135.257676 -28.884908 29.245716 12.553889 0.000000 0.000001 -0.000001 
-27.436295 38.702034 -23.644320 -5.027336 -3.486473 25.697832 -9.217134 -2.429946 5.131519 5.764831 2.442339 -5.105177 -4.592688 -2.103035 -6.235990 6.723284 13.763128 -14.055483 -0.000002 0.000001 -0.000000 -9.313776 6.555824 -6.709014 -4.272569 10.163010 1.237528 -23.354322 -39.159606 21.845445 0.000002 0.000001 0.000002 -10.828199 -13.346678 -1.203508 39.348986 -24.262411 6.821912 79.940876 58.552084 -11.720173 -0.000006 0.000001 -0.000001 10.119105 -4.237170 -25.224090 4.507568 12.894586 -5.110445 1.594593 -8.475163 4.640027 -0.000000 0.000000 0.000005 11.596908 11.693374 7.281372 191.507262 -169.087234 134.519319 -29.061512 29.160041 12.744052 -0.000001 -0.000002 0.000000 
